<?xml version="1.0" standalone="no"?>
<!DOCTYPE svg PUBLIC "-//W3C//DTD SVG 20010904//EN"
 "http://www.w3.org/TR/2001/REC-SVG-20010904/DTD/svg10.dtd">
<svg version="1.0" xmlns="http://www.w3.org/2000/svg"
 width="500.000000pt" height="500.000000pt" viewBox="0 0 500.000000 500.000000"
 preserveAspectRatio="xMidYMid meet">

<g transform="translate(0.000000,500.000000) scale(0.100000,-0.100000)"
fill="#000000" stroke="none">
<path d="M2255 4356 c-247 -52 -429 -148 -586 -307 -62 -62 -176 -216 -167
-225 3 -2 18 -6 34 -10 27 -5 31 -2 52 42 30 61 128 181 195 237 124 105 226
159 382 204 79 22 109 25 250 25 141 1 172 -3 255 -25 52 -14 133 -43 180 -65
60 -29 89 -38 101 -32 20 11 29 4 29 -25 0 -13 18 -34 50 -59 95 -72 205 -207
263 -322 14 -28 40 -93 57 -145 26 -78 32 -116 37 -219 6 -145 -5 -231 -47
-363 -99 -307 -357 -534 -684 -601 -55 -12 -99 -25 -98 -31 6 -24 165 -4 314
41 l58 17 41 -28 c90 -59 249 -222 350 -357 l57 -77 11 31 c6 17 11 38 11 46
0 45 -226 286 -355 378 -30 22 -54 44 -55 49 0 6 29 30 64 53 177 116 327 329
388 550 18 65 22 104 22 247 0 157 -2 177 -28 260 -98 321 -373 585 -716 688
-179 54 -290 59 -465 23z"/>
<path d="M2085 3858 c-34 -20 -261 -105 -316 -119 -62 -15 -203 -18 -269 -5
l-45 8 -32 -84 c-47 -122 -56 -170 -56 -303 0 -123 15 -209 53 -313 70 -186
219 -375 367 -465 29 -18 53 -35 53 -38 0 -3 -57 -24 -127 -48 -157 -51 -290
-114 -400 -187 -101 -67 -201 -158 -209 -189 -8 -34 61 -174 133 -270 144
-192 300 -286 454 -271 l69 6 0 -76 c0 -42 -9 -110 -20 -152 -27 -107 -86
-385 -110 -520 -20 -113 -20 -113 -1 -158 33 -74 61 -105 120 -132 47 -21 75
-27 167 -30 103 -4 116 -2 166 21 58 26 102 78 127 148 12 34 103 446 116 527
l7 42 47 0 48 0 23 -127 c12 -71 30 -155 40 -188 10 -33 30 -105 45 -160 34
-123 55 -167 97 -198 76 -58 224 -81 323 -52 80 23 106 44 142 112 29 55 30
62 22 124 -4 36 -23 135 -42 220 -54 240 -76 373 -87 514 -5 72 -13 162 -16
200 l-7 70 27 -25 c41 -38 65 -82 87 -162 21 -78 56 -141 88 -158 17 -9 21 -5
31 25 10 32 9 42 -18 98 -17 34 -33 73 -37 87 -14 46 -59 135 -98 192 -46 69
-127 161 -135 153 -5 -5 -3 -111 3 -143 1 -10 6 -123 10 -252 4 -129 8 -246
11 -260 2 -14 13 -72 24 -130 19 -98 41 -225 70 -416 12 -76 12 -84 -6 -115
-55 -93 -241 -118 -337 -45 -37 27 -45 42 -69 116 -14 47 -38 136 -52 197 -14
62 -38 164 -52 225 -14 62 -28 123 -30 136 -4 22 -7 23 -111 20 l-106 -3 -23
-105 c-13 -58 -29 -132 -34 -165 -12 -69 -46 -230 -62 -295 -19 -75 -43 -113
-89 -140 -39 -22 -55 -25 -144 -24 -114 1 -153 15 -186 67 -24 38 -23 58 21
307 29 166 51 272 85 420 9 36 18 109 20 163 3 75 9 105 23 125 29 41 52 120
52 178 0 45 -4 56 -31 82 -29 28 -31 36 -31 96 0 37 -4 66 -9 66 -14 0 -44
-17 -114 -63 l-60 -40 -105 6 c-102 5 -281 42 -357 73 -19 8 -39 12 -44 8 -8
-4 -8 -1 0 13 17 32 131 133 201 179 148 95 428 209 545 221 38 4 69 -2 128
-21 90 -31 195 -44 223 -28 23 13 22 13 -86 38 -249 57 -491 217 -595 395 -90
153 -145 346 -145 505 0 136 34 324 60 324 3 0 32 -5 63 -11 105 -19 257 15
414 91 75 37 78 37 91 19 16 -23 64 -49 91 -49 16 0 14 5 -15 34 -24 24 -34
43 -34 65 0 34 -5 36 -35 19z"/>
<path d="M2740 3489 c-130 -54 -178 -218 -95 -318 36 -42 119 -81 174 -81 61
0 123 32 157 82 23 32 29 54 32 108 8 132 -59 211 -182 217 -33 2 -72 -2 -86
-8z m179 -263 c21 -26 9 -69 -23 -85 -26 -12 -33 -12 -55 0 -34 19 -37 39 -11
72 24 30 70 37 89 13z"/>
<path d="M1953 3469 c-75 -48 -96 -152 -50 -240 58 -111 241 -135 332 -44 59
60 69 147 23 207 -7 10 -65 33 -128 52 -63 19 -122 37 -130 40 -8 3 -29 -4
-47 -15z m231 -252 c9 -15 7 -22 -13 -38 -29 -24 -96 -26 -109 -3 -12 22 -4
52 17 58 37 10 94 1 105 -17z"/>
<path d="M1816 3144 c-57 -57 36 -157 192 -208 142 -46 185 -51 412 -50 212 1
324 14 381 45 27 14 18 35 -12 31 -13 -1 -89 -8 -168 -14 -227 -18 -498 11
-615 67 -41 20 -106 81 -106 100 0 17 -33 45 -53 45 -8 0 -23 -7 -31 -16z"/>
<path d="M3819 3086 c-51 -27 -53 -42 -20 -119 l21 -49 35 31 c20 17 45 31 55
31 24 0 25 13 3 79 -19 59 -29 62 -94 27z"/>
<path d="M4112 2965 c-40 -46 -41 -48 -27 -76 8 -15 15 -51 15 -79 0 -27 3
-50 6 -50 10 0 123 84 124 92 0 16 -42 115 -58 136 l-19 24 -41 -47z"/>
<path d="M3638 2783 c-17 -4 -20 -9 -49 -91 l-18 -53 32 7 c18 4 49 10 71 13
37 6 39 9 61 69 l22 62 -51 -1 c-28 -1 -58 -3 -68 -6z"/>
<path d="M3527 2360 c-20 -4 -39 -9 -41 -11 -4 -4 -36 -113 -36 -121 0 -4 133
21 135 25 1 1 11 28 23 60 l21 57 -32 -1 c-18 -1 -49 -5 -70 -9z"/>
<path d="M2352 2208 c-30 -30 -8 -57 32 -42 28 11 14 54 -18 54 -1 0 -7 -5
-14 -12z"/>
<path d="M2447 2213 c-4 -3 -7 -13 -7 -20 0 -10 7 -12 23 -7 31 9 34 14 17 24
-18 12 -25 12 -33 3z"/>
<path d="M2260 2179 c-19 -44 1 -104 41 -125 33 -16 51 -12 31 8 -7 7 -12 18
-12 25 0 8 -10 27 -21 43 -14 18 -20 38 -17 54 7 36 -7 33 -22 -5z"/>
<path d="M3494 1931 c-5 -5 -44 -19 -87 -32 -44 -12 -80 -27 -82 -33 -1 -6
-10 -33 -19 -61 -9 -27 -16 -55 -16 -62 0 -8 28 -2 82 16 75 25 83 30 93 62
l12 34 15 -30 c51 -98 71 -235 44 -298 -27 -65 -124 -119 -178 -99 -24 10
-144 -10 -160 -26 -10 -10 -41 -122 -35 -128 7 -7 132 39 139 52 5 6 30 15 57
19 62 8 158 54 193 92 32 33 58 110 58 170 0 110 -86 352 -116 324z"/>
<path d="M2352 1888 c-18 -18 -15 -48 6 -48 27 0 44 16 40 36 -4 23 -29 29
-46 12z"/>
<path d="M2437 1885 c-4 -8 -3 -16 1 -19 12 -7 53 14 47 24 -9 15 -42 12 -48
-5z"/>
<path d="M2269 1840 c-3 -50 3 -65 32 -92 29 -27 72 -37 83 -19 4 5 -3 7 -14
4 -26 -7 -52 15 -45 37 3 11 -1 20 -10 24 -9 3 -22 20 -30 38 -13 31 -14 32
-16 8z"/>
</g>
</svg>
