<?xml version="1.0" standalone="no"?>
<!DOCTYPE svg PUBLIC "-//W3C//DTD SVG 20010904//EN"
 "http://www.w3.org/TR/2001/REC-SVG-20010904/DTD/svg10.dtd">
<svg version="1.0" xmlns="http://www.w3.org/2000/svg"
 width="500.000000pt" height="500.000000pt" viewBox="0 0 500.000000 500.000000"
 preserveAspectRatio="xMidYMid meet">

<g transform="translate(0.000000,500.000000) scale(0.100000,-0.100000)"
fill="#000000" stroke="none">
<path d="M1878 4470 c-94 -17 -143 -40 -238 -115 -218 -171 -413 -441 -605
-837 -64 -132 -124 -346 -132 -475 -12 -176 38 -350 139 -484 88 -117 344
-308 468 -349 38 -13 54 -30 27 -30 -7 0 -44 -15 -82 -34 -97 -46 -165 -110
-201 -188 -27 -58 -29 -72 -29 -178 0 -110 2 -119 32 -181 18 -36 51 -86 73
-111 22 -26 40 -53 40 -62 0 -21 -42 -105 -88 -173 -29 -45 -33 -56 -21 -64
20 -13 197 -85 242 -99 35 -11 38 -15 33 -39 -24 -100 -37 -204 -33 -247 6
-55 33 -119 64 -146 41 -37 116 -61 193 -62 156 -2 224 53 294 236 43 112 46
121 51 116 3 -2 -2 -40 -11 -84 -43 -224 -3 -340 135 -389 111 -39 238 -8 317
76 63 68 64 71 119 232 l53 152 64 -3 64 -4 12 79 c6 43 14 102 18 130 6 50 8
54 43 64 96 29 192 136 231 260 13 41 36 99 51 130 41 83 63 204 56 313 -10
164 -52 249 -169 342 -88 71 -137 92 -243 106 -47 6 -85 15 -85 19 0 5 3 9 8
9 4 0 43 20 87 45 44 25 85 43 92 41 7 -3 17 -16 22 -28 24 -62 162 -178 288
-241 134 -68 342 -90 491 -53 40 10 75 22 78 28 3 5 10 5 17 0 16 -12 58 -22
52 -12 -4 7 11 12 74 26 8 1 23 11 34 22 19 19 19 20 -18 24 -27 3 -42 -1 -54
-13 -11 -13 -35 -19 -78 -21 -61 -3 -78 3 -78 25 0 7 -4 12 -10 12 -48 2 -361
280 -490 435 l-63 75 33 70 c63 135 70 167 70 325 0 155 -16 232 -71 341 -113
227 -427 558 -724 764 -257 178 -477 255 -642 225z m-540 -644 c4 -55 -15 -92
-55 -107 -32 -12 -63 -3 -63 18 0 35 84 147 105 140 5 -2 11 -25 13 -51z m-7
-213 c6 -16 12 -48 12 -72 2 -43 1 -45 -41 -60 -38 -14 -46 -14 -70 0 -30 16
-41 64 -19 89 15 18 89 70 100 70 4 0 12 -12 18 -27z m-281 -300 c-11 -17 -11
-17 -6 0 3 10 6 24 7 30 0 9 2 9 5 0 3 -7 0 -20 -6 -30z m668 -62 c4 -24 1
-27 -98 -96 -36 -24 -78 -56 -95 -69 l-30 -24 110 26 c106 25 122 26 410 26
485 0 605 -25 687 -146 37 -53 68 -146 68 -200 0 -62 -41 -141 -106 -205 -77
-76 -113 -95 -229 -122 -115 -26 -257 -40 -515 -48 -223 -7 -326 3 -439 40
-88 29 -181 114 -212 195 -36 95 -22 230 30 287 11 11 21 31 23 45 2 17 11 26
28 30 36 7 78 39 64 48 -6 4 -14 17 -18 28 -5 18 2 28 41 57 68 50 256 158
268 154 5 -2 11 -14 13 -26z m-363 -201 c-3 -5 -12 -10 -18 -10 -7 0 -6 4 3
10 19 12 23 12 15 0z m-55 -45 c-7 -9 -15 -13 -17 -11 -7 7 7 26 19 26 6 0 6
-6 -2 -15z m-283 -157 c-3 -8 -6 -5 -6 6 -1 11 2 17 5 13 3 -3 4 -12 1 -19z
m188 -348 c3 -5 1 -10 -4 -10 -6 0 -11 5 -11 10 0 6 2 10 4 10 3 0 8 -4 11
-10z m1425 -144 c0 -2 -7 -6 -15 -10 -8 -3 -15 -1 -15 4 0 6 7 10 15 10 8 0
15 -2 15 -4z m-471 -272 c27 -11 42 -12 59 -5 39 18 72 13 103 -18 20 -20 29
-39 29 -61 0 -42 -47 -90 -88 -90 -43 0 -81 34 -88 79 -5 31 -13 41 -50 62
-24 13 -44 27 -44 31 0 4 -7 5 -15 2 -8 -4 -15 -1 -15 7 0 7 -2 10 -4 8 -5 -5
20 -209 26 -213 1 -1 16 -7 31 -14 27 -12 57 -63 57 -97 0 -29 -55 -75 -90
-75 -39 0 -90 47 -90 83 0 13 10 40 23 58 17 26 21 41 16 62 -11 40 -23 263
-15 276 5 7 28 -5 63 -34 31 -26 72 -53 92 -61z m-380 -1079 c79 -19 166 -38
192 -41 27 -4 52 -10 55 -15 8 -13 -91 -212 -121 -242 -32 -31 -81 -47 -148
-47 -142 0 -216 122 -178 293 6 23 12 54 15 69 4 18 11 25 23 22 10 -2 83 -20
162 -39z m864 -94 c-16 -66 -67 -209 -93 -260 -48 -95 -105 -131 -206 -131
-102 0 -173 53 -189 142 -9 47 10 167 40 266 4 9 56 12 230 11 l225 -2 -7 -26z"/>
<path d="M2371 2990 c-75 -18 -126 -81 -136 -168 -8 -75 13 -130 68 -177 94
-80 242 -69 304 24 32 47 40 130 18 189 -42 109 -138 159 -254 132z m187 -285
c-3 -3 -9 2 -12 12 -6 14 -5 15 5 6 7 -7 10 -15 7 -18z m-78 12 c0 -2 -9 -12
-20 -22 -24 -21 -27 -14 -4 9 15 15 24 20 24 13z"/>
<path d="M1573 2938 c-18 -6 -53 -32 -77 -58 -50 -53 -64 -104 -51 -187 5 -37
16 -56 48 -89 79 -78 198 -79 291 -3 47 40 66 82 66 149 0 65 -18 108 -63 147
-56 49 -138 65 -214 41z m163 -324 c-11 -7 -22 -11 -25 -8 -3 3 3 12 13 20 11
7 22 11 25 8 3 -3 -3 -12 -13 -20z"/>
<path d="M3445 3594 c-44 -8 -83 -18 -87 -22 -4 -4 3 -23 16 -42 13 -19 50
-75 81 -125 32 -49 65 -101 74 -114 191 -278 352 -466 553 -650 l143 -130 17
32 c10 18 29 68 44 112 23 68 27 98 27 200 0 83 -5 142 -17 190 -38 148 -126
289 -244 388 -65 55 -211 130 -292 151 -90 22 -225 27 -315 10z m708 -485 c53
-24 86 -134 58 -188 -33 -61 -119 -40 -153 37 -24 54 -19 104 13 138 25 26 46
30 82 13z"/>
</g>
</svg>
